<svg fill="none" height="300" viewBox="0 0 20 20" width="300" xmlns="http://www.w3.org/2000/svg" version="1.1" xmlns:xlink="http://www.w3.org/1999/xlink" xmlns:svgjs="http://svgjs.dev/svgjs"><g width="100%" height="100%" transform="matrix(1,0,0,1,0,0)"><path d="m13.9697 15.0303c.2929.2929.7677.2929 1.0606 0s.2929-.7677 0-1.0606l-3.9696-3.9697 3.9696-3.96967c.2929-.29289.2929-.76777 0-1.06066s-.7677-.29289-1.0606 0l-3.9697 3.96967-3.96967-3.96967c-.29289-.29289-.76777-.29289-1.06066 0s-.29289.76777 0 1.06066l3.96967 3.96967-3.96967 3.9697c-.29289.2929-.29289.7677 0 1.0606s.76777.2929 1.06066 0l3.96967-3.9696z" fill="#ffffff" fill-opacity="1" data-original-color="#000000ff" stroke="none" stroke-opacity="1"/></g></svg>