<svg id="Layer_1" enable-background="new 0 0 64 64" height="300" viewBox="0 0 64 64" width="300" xmlns="http://www.w3.org/2000/svg" version="1.1" xmlns:xlink="http://www.w3.org/1999/xlink" xmlns:svgjs="http://svgjs.dev/svgjs"><g width="100%" height="100%" transform="matrix(1,0,0,1,0,0)"><path d="m60.118 24.483-10.669-10.918c-.958-.979-2.293-1.54-3.661-1.54h-1.871l-9.623-9.861c-.959-.959-2.286-1.509-3.642-1.509h-23.4c-2.663 0-4.83 2.162-4.83 4.82v41.67c0 2.657 2.167 4.819 4.83 4.819h10.306v6.551c0 2.663 2.167 4.829 4.829 4.829h34.362c2.663 0 4.829-2.166 4.829-4.829v-30.451c0-1.345-.519-2.617-1.46-3.581zm-42.56-7.629v29.11h-9.136v-39.309h21.871l5.24 5.37h-13.146c-2.663 0-4.829 2.167-4.829 4.829zm38.02 40.491h-32.02v-8.341c0-.013.004-.026.004-.039s-.004-.026-.004-.039v-30.901h21.861l10.159 10.396z" fill="#525252" fill-opacity="1" data-original-color="#000000ff" stroke="none" stroke-opacity="1"/></g></svg>