<svg width="32" height="32" viewBox="0 0 32 32" fill="none" xmlns="http://www.w3.org/2000/svg">
<path fill-rule="evenodd" clip-rule="evenodd" d="M10 28V13C10 12.47 9.789 11.961 9.414 11.586C9.039 11.211 8.53 11 8 11C6.89 11 5.11 11 4 11C3.47 11 2.961 11.211 2.586 11.586C2.211 11.961 2 12.47 2 13V28C2 28.53 2.211 29.039 2.586 29.414C2.961 29.789 3.47 30 4 30H8C8.53 30 9.039 29.789 9.414 29.414C9.789 29.039 10 28.53 10 28ZM8 13V28H4V13H8Z" fill="white"/>
<path fill-rule="evenodd" clip-rule="evenodd" d="M3 9H10.586L15.293 13.707C15.52 13.934 15.843 14.039 16.16 13.987C16.477 13.936 16.751 13.735 16.894 13.447L21.618 4H29C29.552 4 30 3.552 30 3C30 2.448 29.552 2 29 2H21C20.621 2 20.275 2.214 20.106 2.553L15.726 11.312L11.707 7.293C11.52 7.105 11.265 7 11 7H3C2.448 7 2 7.448 2 8C2 8.552 2.448 9 3 9Z" fill="white"/>
<path fill-rule="evenodd" clip-rule="evenodd" d="M20 18C20 17.47 19.789 16.961 19.414 16.586C19.039 16.211 18.53 16 18 16C16.89 16 15.11 16 14 16C13.47 16 12.961 16.211 12.586 16.586C12.211 16.961 12 17.47 12 18V28C12 28.53 12.211 29.039 12.586 29.414C12.961 29.789 13.47 30 14 30H18C18.53 30 19.039 29.789 19.414 29.414C19.789 29.039 20 28.53 20 28V18ZM18 18V28H14V18H18Z" fill="white"/>
<path fill-rule="evenodd" clip-rule="evenodd" d="M30 8C30 7.47 29.789 6.961 29.414 6.586C29.039 6.211 28.53 6 28 6C26.89 6 25.11 6 24 6C23.47 6 22.961 6.211 22.586 6.586C22.211 6.961 22 7.47 22 8V28C22 28.53 22.211 29.039 22.586 29.414C22.961 29.789 23.47 30 24 30H28C28.53 30 29.039 29.789 29.414 29.414C29.789 29.039 30 28.53 30 28V8ZM28 8V28H24V8H28Z" fill="white"/>
</svg>
