<svg version="1.1" id="svg3912" xml:space="preserve" width="300" height="300" viewBox="0 0 682.66669 682.66669" xmlns="http://www.w3.org/2000/svg" xmlns:svg="http://www.w3.org/2000/svg" xmlns:xlink="http://www.w3.org/1999/xlink" xmlns:svgjs="http://svgjs.dev/svgjs"><g width="100%" height="100%" transform="matrix(1,0,0,1,0,0)"><defs id="defs3916"><clipPath clipPathUnits="userSpaceOnUse" id="clipPath3926"><path d="M 0,512 H 512 V 0 H 0 Z" id="path3924" fill="#ffffff" fill-opacity="1" data-original-color="#000000ff" stroke="none" stroke-opacity="1"/></clipPath></defs><g id="g3918" transform="matrix(1.3333333,0,0,-1.3333333,0,682.66667)"><g id="g3920"><g id="g3922" clip-path="url(#clipPath3926)"><g id="g3928" transform="translate(155.0698,425.5215)"><path d="m 0,0 h -121.37 c -6.989,0 -12.7,5.698 -12.7,12.671 v 26.617 c 0,20.438 16.762,37.191 37.275,37.191 h 328.597 m 37.275,-260.587 V 0 39.288 c 0,20.466 -16.762,37.191 -37.275,37.191 -20.512,0 -37.274,-16.725 -37.274,-37.191 V 12.671 C 194.528,5.698 188.817,0 181.828,0 H 90.005 m -191.63,0 v -385.622 c 0,-6.974 5.71,-12.671 12.7,-12.671 h 267.628" style="stroke-linecap: round; stroke-linejoin: round; stroke-miterlimit: 10; stroke-dasharray: none;" id="path3930" fill="none" fill-opacity="1" stroke="#ffffff" stroke-opacity="1" data-original-stroke-color="#000000ff" stroke-width="20" data-original-stroke-width="20"/></g><g id="g3932" transform="translate(121.4033,369.7646)"><path d="m 0,0 h 38.951 c 5.114,0 9.29,-4.167 9.29,-9.241 v -38.863 c 0,-5.074 -4.176,-9.241 -9.29,-9.241 H 0 c -5.085,0 -9.262,4.167 -9.262,9.241 V -9.241 C -9.262,-4.167 -5.085,0 0,0 Z" style="stroke-linecap: round; stroke-linejoin: round; stroke-miterlimit: 10; stroke-dasharray: none;" id="path3934" fill="none" fill-opacity="1" stroke="#ffffff" stroke-opacity="1" data-original-stroke-color="#000000ff" stroke-width="20" data-original-stroke-width="20"/></g><g id="g3936" transform="translate(357.3252,236.8203)"><path d="m 0,0 c 0,31.352 44.548,31.352 44.548,0 v -55.672 m 44.548,17.83 c 0,31.351 44.576,31.351 44.576,0 v -61.029 c 0.682,-116.844 -115.12,-174.274 -186.516,-82.658 l -69.407,89.092 c -22.217,28.517 12.813,66.217 37.331,39.968 l 24.349,-26.106 c 19.66,-21.062 16.023,-8.221 16.023,21.571 V 87.505 c 0,31.351 44.548,31.351 44.548,0 L 0,-55.672 m 44.548,36.737 c 0,31.379 44.548,31.351 44.548,0 v -36.737" style="stroke-linecap: round; stroke-linejoin: round; stroke-miterlimit: 10; stroke-dasharray: none;" id="path3938" fill="none" fill-opacity="1" stroke="#ffffff" stroke-opacity="1" data-original-stroke-color="#000000ff" stroke-width="20" data-original-stroke-width="20"/></g><g id="g3940" transform="translate(211.7207,369.7646)"><path d="M 0,0 H 80.032" style="stroke-linecap: round; stroke-linejoin: round; stroke-miterlimit: 10; stroke-dasharray: none;" id="path3942" fill="none" fill-opacity="1" stroke="#ffffff" stroke-opacity="1" data-original-stroke-color="#000000ff" stroke-width="20" data-original-stroke-width="20"/></g><g id="g3944" transform="translate(211.7207,312.4199)"><path d="M 0,0 H 63.043" style="stroke-linecap: round; stroke-linejoin: round; stroke-miterlimit: 10; stroke-dasharray: none;" id="path3946" fill="none" fill-opacity="1" stroke="#ffffff" stroke-opacity="1" data-original-stroke-color="#000000ff" stroke-width="20" data-original-stroke-width="20"/></g><g id="g3948" transform="translate(112.1411,255.0479)"><path d="M 0,0 H 152.736" style="stroke-linecap: round; stroke-linejoin: round; stroke-miterlimit: 10; stroke-dasharray: none;" id="path3950" fill="none" fill-opacity="1" stroke="#ffffff" stroke-opacity="1" data-original-stroke-color="#000000ff" stroke-width="20" data-original-stroke-width="20"/></g><g id="g3952" transform="translate(112.1411,197.7031)"><path d="M 0,0 H 82.391" style="stroke-linecap: round; stroke-linejoin: round; stroke-miterlimit: 10; stroke-dasharray: none;" id="path3954" fill="none" fill-opacity="1" stroke="#ffffff" stroke-opacity="1" data-original-stroke-color="#000000ff" stroke-width="20" data-original-stroke-width="20"/></g><g id="g3956" transform="translate(112.1411,140.3301)"><path d="M 0,0 H 72.561" style="stroke-linecap: round; stroke-linejoin: round; stroke-miterlimit: 10; stroke-dasharray: none;" id="path3958" fill="none" fill-opacity="1" stroke="#ffffff" stroke-opacity="1" data-original-stroke-color="#000000ff" stroke-width="20" data-original-stroke-width="20"/></g><g id="g3960" transform="translate(112.1411,82.9854)"><path d="M 0,0 H 106.455" style="stroke-linecap: round; stroke-linejoin: round; stroke-miterlimit: 10; stroke-dasharray: none;" id="path3962" fill="none" fill-opacity="1" stroke="#ffffff" stroke-opacity="1" data-original-stroke-color="#000000ff" stroke-width="20" data-original-stroke-width="20"/></g><g id="g3964" transform="translate(200.1289,425.5215)"><path d="M 0,0 H -0.057" style="stroke-linecap: round; stroke-linejoin: round; stroke-miterlimit: 10; stroke-dasharray: none;" id="path3966" fill="none" fill-opacity="1" stroke="#ffffff" stroke-opacity="1" data-original-stroke-color="#000000ff" stroke-width="20" data-original-stroke-width="20"/></g></g></g></g></g></svg>