<svg width="184" height="181" viewBox="0 0 184 181" fill="none" xmlns="http://www.w3.org/2000/svg">
<path fill-rule="evenodd" clip-rule="evenodd" d="M62.3407 35.8642C93.017 35.8642 117.882 60.3275 117.882 90.5C117.882 120.676 93.0134 145.136 62.3407 145.136C31.6645 145.136 6.79932 120.673 6.79932 90.5C6.79932 60.3239 31.6645 35.8642 62.3407 35.8642ZM158.132 167.252C156.971 167.252 156.03 166.326 156.03 165.184C156.03 164.042 156.971 163.116 158.132 163.116H175.098C176.259 163.116 177.201 164.042 177.201 165.184C177.201 166.326 176.259 167.252 175.098 167.252H158.132ZM158.132 152.461C156.971 152.461 156.03 151.534 156.03 150.393C156.03 149.251 156.971 148.325 158.132 148.325H175.098C176.259 148.325 177.201 149.251 177.201 150.393C177.201 151.534 176.259 152.461 175.098 152.461H158.132ZM158.132 122.394C156.971 122.394 156.03 121.468 156.03 120.326C156.03 119.184 156.971 118.258 158.132 118.258H175.098C176.259 118.258 177.201 119.184 177.201 120.326C177.201 121.468 176.259 122.394 175.098 122.394H158.132ZM158.132 107.603C156.971 107.603 156.03 106.677 156.03 105.535C156.03 104.393 156.971 103.467 158.132 103.467H175.098C176.259 103.467 177.201 104.393 177.201 105.535C177.201 106.677 176.259 107.603 175.098 107.603H158.132ZM158.132 77.5366C156.971 77.5366 156.03 76.6104 156.03 75.4685C156.03 74.3267 156.971 73.4005 158.132 73.4005H175.098C176.259 73.4005 177.201 74.3267 177.201 75.4685C177.201 76.6104 176.259 77.5366 175.098 77.5366H158.132ZM158.132 62.7455C156.971 62.7455 156.03 61.8193 156.03 60.6774C156.03 59.5356 156.971 58.6094 158.132 58.6094H175.098C176.259 58.6094 177.201 59.5356 177.201 60.6774C177.201 61.8193 176.259 62.7455 175.098 62.7455H158.132ZM158.132 32.679C156.971 32.679 156.03 31.7528 156.03 30.6109C156.03 29.4691 156.971 28.5429 158.132 28.5429H175.098C176.259 28.5429 177.201 29.4691 177.201 30.6109C177.201 31.7528 176.259 32.679 175.098 32.679H158.132ZM158.132 17.8879C156.971 17.8879 156.03 16.9617 156.03 15.8198C156.03 14.678 156.971 13.7518 158.132 13.7518H175.098C176.259 13.7518 177.201 14.678 177.201 15.8198C177.201 16.9617 176.259 17.8879 175.098 17.8879H158.132ZM130.942 150.393H145.978V165.184H130.942V150.393ZM130.942 15.8163H145.978V30.6074H130.942V15.8163ZM130.942 60.6739H145.978V75.465H130.942V60.6739ZM130.942 105.535H145.978V120.326H130.942V105.535ZM140.562 34.7471V56.5378H136.354V34.7471H140.562ZM140.562 79.6047V101.395H136.354V79.6047H140.562ZM140.562 124.462V146.253H136.354V124.462H140.562ZM60.2384 69.1335V90.5C60.2384 91.7621 61.2806 92.6176 62.5276 92.561H76.6223C77.7795 92.561 78.7174 91.6383 78.7174 90.5C78.7174 89.3617 77.7795 88.439 76.6223 88.439H64.4467V69.1335C64.4467 67.9917 63.5051 67.0655 62.3443 67.0655C61.1799 67.0655 60.2384 67.9917 60.2384 69.1335ZM79.7021 56.7923L77.8082 60.0164C77.226 61.0027 77.571 62.2647 78.5737 62.8374C79.5763 63.4101 80.8593 63.0707 81.4415 62.0844L83.3354 58.8604C83.9176 57.8741 83.5726 56.612 82.5699 56.0393C81.5673 55.4701 80.2807 55.806 79.7021 56.7923ZM94.512 69.8512L91.2345 71.7142C90.2318 72.2798 89.8868 73.5419 90.4618 74.5282C91.0368 75.5145 92.3198 75.8539 93.3224 75.2882L96.5999 73.4252C97.6026 72.8596 97.9476 71.5975 97.3726 70.6112C96.7976 69.6249 95.5146 69.282 94.512 69.8512ZM100.693 88.4319H96.909C95.7482 88.4319 94.8067 89.3582 94.8067 90.5C94.8067 91.6419 95.7482 92.5681 96.909 92.5681H100.693C101.854 92.5681 102.796 91.6419 102.796 90.5C102.799 89.3582 101.854 88.4319 100.693 88.4319ZM96.6071 107.578L93.3296 105.715C92.327 105.143 91.044 105.482 90.4618 106.468C89.8796 107.455 90.2246 108.717 91.2273 109.289L94.5048 111.152C95.5074 111.725 96.7904 111.386 97.3726 110.399C97.9512 109.413 97.6098 108.148 96.6071 107.578ZM83.3318 122.14L81.4379 118.916C80.8557 117.929 79.5728 117.593 78.5701 118.163C77.5674 118.735 77.226 119.997 77.8046 120.984L79.6985 124.208C80.2807 125.194 81.5637 125.53 82.5663 124.961C83.5726 124.388 83.914 123.126 83.3318 122.14ZM64.4431 128.227V124.505C64.4431 123.363 63.5015 122.437 62.3407 122.437C61.1799 122.437 60.2384 123.363 60.2384 124.505V128.227C60.2384 129.369 61.1799 130.295 62.3407 130.295C63.5015 130.295 64.4431 129.369 64.4431 128.227ZM44.9793 124.208L46.8732 120.984C47.4554 119.997 47.1104 118.735 46.1078 118.163C45.1051 117.59 43.8221 117.929 43.2399 118.916L41.346 122.14C40.7638 123.126 41.1088 124.388 42.1115 124.961C43.1142 125.53 44.4007 125.194 44.9793 124.208ZM30.1767 111.149L33.4542 109.286C34.4568 108.713 34.7982 107.451 34.2196 106.465C33.6374 105.478 32.3545 105.143 31.3518 105.712L28.0743 107.575C27.0717 108.148 26.7303 109.41 27.3088 110.396C27.891 111.386 29.174 111.722 30.1767 111.149ZM23.9882 92.5681H27.7724C28.9332 92.5681 29.8748 91.6419 29.8748 90.5C29.8748 89.3582 28.9332 88.4319 27.7724 88.4319H23.9882C22.8274 88.4319 21.8859 89.3582 21.8859 90.5C21.8859 91.6419 22.8274 92.5681 23.9882 92.5681ZM28.0743 73.4217L31.3518 75.2847C32.3545 75.8574 33.6374 75.518 34.2196 74.5317C34.8018 73.5454 34.4568 72.2834 33.4542 71.7107L30.1767 69.8476C29.174 69.2749 27.891 69.6143 27.3088 70.6006C26.7303 71.5869 27.0717 72.8525 28.0743 73.4217ZM41.3496 58.8604L43.2435 62.0844C43.8257 63.0707 45.1087 63.4066 46.1113 62.8374C47.114 62.2683 47.4554 61.0027 46.8768 60.0164L44.9829 56.7923C44.4007 55.806 43.1178 55.4701 42.1151 56.0393C41.1124 56.6085 40.7674 57.8741 41.3496 58.8604ZM60.2384 52.7728V56.4953C60.2384 57.6372 61.1799 58.5634 62.3407 58.5634C63.5015 58.5634 64.4431 57.6372 64.4431 56.4953V52.7728C64.4431 51.631 63.5015 50.7048 62.3407 50.7048C61.1799 50.7048 60.2384 51.631 60.2384 52.7728ZM62.3407 44.7374C36.649 44.7374 15.8196 65.2272 15.8196 90.5C15.8196 115.773 36.649 136.263 62.3407 136.263C88.036 136.263 108.862 115.773 108.862 90.5C108.862 65.2272 88.036 44.7374 62.3407 44.7374Z" fill="white"/>
</svg>
