<?xml version="1.0" encoding="UTF-8"?>
<svg id="Camada_2" data-name="Camada 2" xmlns="http://www.w3.org/2000/svg" viewBox="0 0 21.01 21.04">
  <defs>
    <style>
      .cls-1 {
        fill: #f7fbfe;
      }
    </style>
  </defs>
  <g id="Camada_1-2" data-name="Camada 1">
    <g>
      <path class="cls-1" d="M17.78,15.84h-.7v-.7c0-.34-.28-.62-.62-.62s-.62.28-.62.62v.7h-.7c-.34,0-.62.28-.62.62s.28.62.62.62h.7v.7c0,.34.28.62.62.62s.62-.28.62-.62v-.7h.7c.82-.03.82-1.2,0-1.23Z"/>
      <path class="cls-1" d="M17.92,12.12C19.96,6.33,15.38-.11,9.2,0,4.12,0,0,4.12,0,9.2c-.11,6.18,6.33,10.77,12.12,8.72.61,1.81,2.32,3.12,4.34,3.12,5.2-.1,6.3-7.2,1.46-8.91h0ZM1.23,9.2C1.23,4.81,4.81,1.23,9.2,1.23c5.41-.1,9.4,5.61,7.5,10.66-.9-.05-1.8.17-2.56.63-.73-.69-1.6-1.21-2.54-1.54,2.92-2.24,1.34-7.01-2.4-7.01-3.73,0-5.31,4.76-2.4,7.01-1.6.56-2.97,1.68-3.84,3.18-1.12-1.4-1.73-3.13-1.73-4.95ZM9.2,10.56c-1.48,0-2.68-1.2-2.68-2.68.13-3.56,5.23-3.56,5.37,0,0,1.48-1.2,2.68-2.68,2.68h0ZM11.89,16.7c-2.72,1-5.92.37-8.04-1.6,1.66-3.47,6.46-4.4,9.31-1.8-.87.9-1.33,2.13-1.27,3.41h0ZM16.46,19.8c-1.84,0-3.34-1.5-3.34-3.34.17-4.43,6.52-4.43,6.69,0,0,1.84-1.5,3.34-3.34,3.34h0Z"/>
    </g>
  </g>
</svg>