<?xml version="1.0" encoding="UTF-8"?>
<svg id="Camada_2" data-name="Camada 2" xmlns="http://www.w3.org/2000/svg" xmlns:xlink="http://www.w3.org/1999/xlink" viewBox="0 0 77 78">
  <defs>
    <style>
      .cls-1 {
        fill: #fff;
        fill-rule: evenodd;
        filter: url(#drop-shadow-1);
      }
    </style>
    <filter id="drop-shadow-1" x="0" y="0" width="77" height="78" filterUnits="userSpaceOnUse">
      <feOffset dx="2" dy="2"/>
      <feGaussianBlur result="blur" stdDeviation="9"/>
      <feFlood flood-color="#000" flood-opacity=".08"/>
      <feComposite in2="blur" operator="in"/>
      <feComposite in="SourceGraphic"/>
    </filter>
  </defs>
  <g id="Camada_1-2" data-name="Camada 1">
    <path class="cls-1" d="M25.2,36.68c0-6.28,5.09-11.38,11.38-11.38s11.38,5.09,11.38,11.38-5.09,11.38-11.38,11.38-11.38-5.09-11.38-11.38ZM37.62,32.09c0-.61-.5-1.1-1.12-1.1s-1.12.49-1.12,1.1v3.29h-3.36c-.62,0-1.12.49-1.12,1.1s.5,1.1,1.12,1.1h3.36v3.29c0,.61.5,1.1,1.12,1.1s1.12-.49,1.12-1.1v-3.29h3.36c.62,0,1.12-.49,1.12-1.1s-.5-1.1-1.12-1.1h-3.36v-3.29Z"/>
  </g>
</svg>