<?xml version="1.0" encoding="UTF-8"?>
<svg id="Camada_2" data-name="Camada 2" xmlns="http://www.w3.org/2000/svg" viewBox="0 0 70.52 69.09">
  <defs>
    <style>
      .cls-1 {
        fill: #ede6ff;
        fill-rule: evenodd;
      }
    </style>
  </defs>
  <g id="Camada_1-2" data-name="Camada 1">
    <g id="Solid-Blue">
      <path class="cls-1" d="M70.52,35.06l-37.6.04-7.95,5.91c-.37.27-.81.42-1.27.42H6.67v21.27c0,1.69.67,3.32,1.87,4.51,1.2,1.2,2.82,1.87,4.52,1.87h51.07c1.69,0,3.32-.67,4.52-1.87s1.87-2.82,1.87-4.51v-27.65ZM7.89,38.65l14.75-6.97,4.66-8.74c.21-.4.55-.73.97-.92L62.89,5.6l-.92-1.94c-.72-1.53-2.03-2.71-3.62-3.28s-3.35-.49-4.88.24l-22.11,10.46-8.46-4.49c-.59-.31-1.3-.33-1.91-.04L3.66,14.74c-1.53.72-2.71,2.03-3.28,3.62-.57,1.59-.49,3.35.24,4.88l7.28,15.4Z"/>
    </g>
  </g>
</svg>