<?xml version="1.0" encoding="UTF-8"?>
<svg id="Camada_2" data-name="Camada 2" xmlns="http://www.w3.org/2000/svg" viewBox="0 0 21.01 17.07">
  <defs>
    <style>
      .cls-1 {
        fill: #fff;
      }
    </style>
  </defs>
  <g id="Camada_1-2" data-name="Camada 1">
    <path class="cls-1" d="M13.36,12.24c-2.05,2.67-5.87,3.17-8.53,1.12-2.67-2.05-3.17-5.87-1.12-8.53,2.05-2.67,5.87-3.17,8.53-1.12.61.47,1.12,1.05,1.52,1.7,0,.01.02.03.02.04l1.57-2.06-.03-.04c-.46-.61-1-1.15-1.61-1.61C9.97-1.11,4.6-.39,1.75,3.36-1.11,7.1-.39,12.46,3.35,15.32c3.74,2.85,9.09,2.14,11.95-1.59l.03-.04-1.95-1.49-.03.04ZM18.25,4.39h-2.76l1.95,2.93h-7.22v2.43h7.22l-1.95,2.93h2.76l2.76-4.14-2.76-4.14Z"/>
  </g>
</svg>