<?xml version="1.0" encoding="UTF-8"?>
<svg id="Camada_2" data-name="Camada 2" xmlns="http://www.w3.org/2000/svg" viewBox="0 0 21.85 19.51">
  <defs>
    <style>
      .cls-1 {
        fill: #f7fbfe;
      }
    </style>
  </defs>
  <g id="Camada_1-2" data-name="Camada 1">
    <g>
      <path class="cls-1" d="M21.29,5L11.43.12c-.33-.16-.73-.16-1.06,0L.56,4.96C.22,5.13,0,5.46,0,5.81c0,.35.21.68.56.85l9.86,4.92c.17.08.35.12.53.12s.37-.04.53-.12l9.81-4.88c.35-.17.56-.5.56-.85s-.22-.68-.56-.85Z"/>
      <path class="cls-1" d="M10.93,13.52L1.62,8.9l-1.06,1.71,9.83,4.88c.16.08.35.12.53.12s.37-.04.53-.12l9.83-4.88-1.06-1.71-9.3,4.61Z"/>
      <path class="cls-1" d="M10.93,17.42L1.62,12.8l-1.06,1.71,9.83,4.88c.16.08.35.12.53.12s.37-.04.53-.12l9.83-4.88-1.06-1.71-9.3,4.61Z"/>
    </g>
  </g>
</svg>