<?xml version="1.0" encoding="UTF-8"?>
<svg id="Camada_2" data-name="Camada 2" xmlns="http://www.w3.org/2000/svg" xmlns:xlink="http://www.w3.org/1999/xlink" viewBox="0 0 259.07 38.36">
  <defs>
    <style>
      .cls-1 {
        fill: url(#Gradiente_sem_nome_26-4);
      }

      .cls-2 {
        fill: url(#Gradiente_sem_nome_26);
      }

      .cls-3 {
        fill: #4d02e0;
      }

      .cls-4 {
        fill: url(#Gradiente_sem_nome_26-3);
      }

      .cls-5 {
        fill: url(#Gradiente_sem_nome_26-2);
      }

      .cls-6 {
        isolation: isolate;
      }

      .cls-7 {
        fill: url(#Gradiente_sem_nome_26-5);
      }
    </style>
    <linearGradient id="Gradiente_sem_nome_26" data-name="Gradiente sem nome 26" x1="9.7" y1="16.97" x2="26.4" y2="16.97" gradientUnits="userSpaceOnUse">
      <stop offset="0" stop-color="#8c2be2"/>
      <stop offset="1" stop-color="#4d02e0"/>
    </linearGradient>
    <linearGradient id="Gradiente_sem_nome_26-2" data-name="Gradiente sem nome 26" x1="7.23" y1="21.75" x2="36.35" y2="21.75" xlink:href="#Gradiente_sem_nome_26"/>
    <linearGradient id="Gradiente_sem_nome_26-3" data-name="Gradiente sem nome 26" x1="7.15" y1="20.81" x2="34.57" y2="20.81" xlink:href="#Gradiente_sem_nome_26"/>
    <linearGradient id="Gradiente_sem_nome_26-4" data-name="Gradiente sem nome 26" x1="0" y1="19.18" x2="36.54" y2="19.18" xlink:href="#Gradiente_sem_nome_26"/>
    <linearGradient id="Gradiente_sem_nome_26-5" data-name="Gradiente sem nome 26" x1="1.54" y1="19.88" x2="36.54" y2="19.88" xlink:href="#Gradiente_sem_nome_26"/>
  </defs>
  <g id="Camada_1-2" data-name="Camada 1">
    <g>
      <g>
        <polygon class="cls-2" points="9.7 26.86 20.18 20.98 26.4 7.09 18.22 19.61 9.7 26.86"/>
        <g>
          <path class="cls-5" d="M31.08,30.09c-6.56,7.67-16.7,9.63-22.4,4.77-.51-.43-1.02-.94-1.45-1.53,5.88,3.24,14.57.77,20.53-6.13,5.88-6.9,6.99-15.93,2.9-21.21.6.34,1.19.77,1.7,1.19,5.71,4.86,5.28,15.25-1.19,22.92h-.09Z"/>
          <path class="cls-4" d="M34.49,17.4c-.51,3.49-2.04,6.73-4.09,9.54-2.64,3.49-6.22,6.47-10.39,7.84-4.17,1.36-9.54,1.28-12.86-1.45,5.88,3.24,14.57.77,20.53-6.13,5.88-6.9,6.99-15.93,2.9-21.21,2.98,2.47,4.34,7.92,3.92,11.42h0Z"/>
        </g>
        <g>
          <path class="cls-1" d="M36.54,11.35c-.68-1.96-1.79-3.75-3.41-5.11-1.36-1.19-3.07-2.04-4.86-2.39-5.96-1.45-13.55,1.45-18.91,7.67-5.37,6.3-6.99,14.14-4.69,19.85.68,1.7,1.7,3.15,3.15,4.43,1.62,1.36,3.49,2.21,5.62,2.56-3.32,0-6.39-.94-8.77-3.07C-1.97,29.58-1.54,17.31,6.04,8.45,13.62-.4,25.46-2.53,32.19,3.17c2.39,2.04,3.83,4.94,4.34,8.18h0Z"/>
          <path class="cls-7" d="M36.54,11.35c-.68-1.96-1.79-3.75-3.41-5.11-1.36-1.19-3.07-2.04-4.86-2.39-5.96-1.45-13.55,1.45-18.91,7.67-5.37,6.3-6.99,14.14-4.69,19.85.68,1.7,1.7,3.15,3.15,4.43,1.62,1.36,3.49,2.21,5.62,2.56-4.26-.26-8.35-3.15-10.31-6.99-1.96-3.83-2.04-8.52-.68-12.61,1.28-4.09,3.92-7.75,6.99-10.73,2.47-2.39,5.28-4.34,8.52-5.54s6.73-1.45,10.05-.51c3.24.94,6.22,3.32,7.5,6.39.34.85.68,1.87.94,2.9l.09.09Z"/>
        </g>
      </g>
      <g class="cls-6">
        <path class="cls-3" d="M45.16,15.01c1.23-1.65,2.73-2.94,4.5-3.88,1.77-.93,3.63-1.4,5.58-1.4,2.31,0,4.23.56,5.76,1.67,1.53,1.12,2.52,2.7,2.96,4.74h-3.31c-.37-1.24-1.04-2.19-2.04-2.87-.99-.68-2.26-1.02-3.8-1.02s-2.86.34-4.15,1.02c-1.29.68-2.38,1.65-3.27,2.92-.89,1.27-1.49,2.73-1.79,4.39-.1.53-.15,1.14-.15,1.83,0,1.99.58,3.56,1.75,4.73,1.17,1.17,2.72,1.75,4.67,1.75,1.54,0,2.93-.33,4.17-1,1.24-.67,2.25-1.62,3.04-2.86h3.32c-1.16,2.03-2.69,3.59-4.61,4.7-1.92,1.11-4.03,1.66-6.34,1.66-1.72,0-3.25-.36-4.59-1.08s-2.38-1.73-3.13-3.04-1.12-2.81-1.12-4.52c0-.71.06-1.43.18-2.16.36-2.07,1.16-3.93,2.39-5.58Z"/>
        <path class="cls-3" d="M80.76,11.37c1.07.91,1.61,2.13,1.61,3.65,0,.24-.04.65-.12,1.22-.26,1.46-.91,2.75-1.95,3.86-1.03,1.12-2.42,1.85-4.17,2.22l3.74,8.88h-3.32l-3.53-8.67h-3.31l-1.55,8.67h-2.77l3.77-21.2h6.81c2.11,0,3.7.46,4.78,1.37ZM79.49,15.23c0-.97-.32-1.72-.96-2.25-.64-.53-1.62-.79-2.94-.79h-4.04l-1.43,8.12h4.08c1.5,0,2.69-.37,3.56-1.11.87-.74,1.42-1.73,1.64-2.96.06-.37.09-.7.09-1Z"/>
        <path class="cls-3" d="M88.91,30.3c-1.34-.74-2.38-1.78-3.12-3.12-.74-1.34-1.11-2.87-1.11-4.59,0-2.39.54-4.57,1.63-6.52,1.08-1.96,2.58-3.5,4.49-4.62,1.91-1.13,4.03-1.69,6.39-1.69,1.78,0,3.35.37,4.7,1.11,1.35.74,2.39,1.77,3.12,3.1.73,1.33,1.09,2.85,1.09,4.58,0,2.41-.54,4.6-1.63,6.55-1.08,1.96-2.58,3.5-4.49,4.62-1.91,1.13-4.04,1.69-6.42,1.69-1.76,0-3.31-.37-4.65-1.11ZM98.75,27.54c1.41-.92,2.51-2.16,3.3-3.73.79-1.56,1.19-3.25,1.19-5.08,0-2.01-.58-3.59-1.73-4.74-1.16-1.16-2.73-1.73-4.71-1.73-1.78,0-3.38.46-4.79,1.38-1.41.92-2.5,2.16-3.28,3.71-.78,1.55-1.17,3.24-1.17,5.06,0,2.01.57,3.59,1.72,4.76,1.15,1.17,2.71,1.75,4.7,1.75,1.78,0,3.38-.46,4.79-1.38Z"/>
        <path class="cls-3" d="M124.46,31.2h-2.77l-8.12-16.88-3.01,16.88h-2.77l3.77-21.23h2.77l8.15,16.85,2.98-16.85h2.77l-3.77,21.23Z"/>
        <path class="cls-3" d="M134.2,30.3c-1.34-.74-2.38-1.78-3.12-3.12-.74-1.34-1.11-2.87-1.11-4.59,0-2.39.54-4.57,1.63-6.52,1.08-1.96,2.58-3.5,4.49-4.62,1.91-1.13,4.03-1.69,6.39-1.69,1.78,0,3.35.37,4.7,1.11,1.35.74,2.39,1.77,3.12,3.1.73,1.33,1.09,2.85,1.09,4.58,0,2.41-.54,4.6-1.63,6.55-1.08,1.96-2.58,3.5-4.49,4.62-1.91,1.13-4.04,1.69-6.42,1.69-1.76,0-3.31-.37-4.65-1.11ZM144.04,27.54c1.41-.92,2.51-2.16,3.3-3.73.79-1.56,1.19-3.25,1.19-5.08,0-2.01-.58-3.59-1.73-4.74-1.16-1.16-2.73-1.73-4.71-1.73-1.78,0-3.38.46-4.79,1.38-1.41.92-2.5,2.16-3.28,3.71-.78,1.55-1.17,3.24-1.17,5.06,0,2.01.57,3.59,1.72,4.76,1.15,1.17,2.71,1.75,4.7,1.75,1.78,0,3.38-.46,4.79-1.38Z"/>
        <path class="cls-3" d="M156.32,15.01c1.23-1.65,2.73-2.94,4.52-3.86,1.78-.92,3.66-1.38,5.63-1.38,2.27,0,4.17.56,5.7,1.67,1.53,1.12,2.52,2.69,2.96,4.71h-3.31c-.37-1.24-1.05-2.19-2.05-2.87-1-.68-2.25-1.02-3.73-1.02s-2.87.34-4.18,1.02c-1.31.68-2.41,1.65-3.3,2.92-.89,1.27-1.49,2.73-1.79,4.39-.1.53-.15,1.14-.15,1.83,0,1.99.59,3.56,1.76,4.73,1.17,1.17,2.75,1.75,4.71,1.75,2.09,0,3.91-.62,5.47-1.87,1.56-1.25,2.64-2.94,3.22-5.06h-8.45l.4-2.19h11.4l-.4,2.13c-.47,1.74-1.29,3.34-2.48,4.79-1.19,1.45-2.62,2.6-4.29,3.44s-3.44,1.26-5.31,1.26c-1.74,0-3.29-.36-4.64-1.08s-2.4-1.74-3.15-3.06c-.75-1.32-1.12-2.83-1.12-4.53,0-.69.06-1.4.18-2.13.36-2.07,1.16-3.93,2.39-5.58Z"/>
        <path class="cls-3" d="M192.1,11.37c1.07.91,1.61,2.13,1.61,3.65,0,.24-.04.65-.12,1.22-.26,1.46-.91,2.75-1.95,3.86-1.03,1.12-2.42,1.85-4.17,2.22l3.74,8.88h-3.32l-3.53-8.67h-3.31l-1.55,8.67h-2.77l3.77-21.2h6.81c2.11,0,3.7.46,4.78,1.37ZM190.83,15.23c0-.97-.32-1.72-.96-2.25-.64-.53-1.62-.79-2.94-.79h-4.04l-1.43,8.12h4.08c1.5,0,2.69-.37,3.56-1.11.87-.74,1.42-1.73,1.64-2.96.06-.37.09-.7.09-1Z"/>
        <path class="cls-3" d="M208.62,26.49h-9.28l-2.52,4.71h-2.92l11.38-21.08h3.19l3.92,21.08h-2.92l-.85-4.71ZM208.22,24.33l-1.95-10.83-5.78,10.83h7.73Z"/>
        <path class="cls-3" d="M240.94,10.16l-3.71,21.05h-2.77l2.77-15.69-9.76,15.69h-1.95l-4.26-15.63-2.77,15.63h-2.77l3.74-21.05h2.98l4.71,17.4,10.83-17.4h2.95Z"/>
        <path class="cls-3" d="M255.3,26.49h-9.28l-2.52,4.71h-2.92l11.38-21.08h3.19l3.92,21.08h-2.92l-.85-4.71ZM254.9,24.33l-1.95-10.83-5.78,10.83h7.73Z"/>
      </g>
    </g>
  </g>
</svg>