<svg id="Grupo_696" data-name="Grupo 696" xmlns="http://www.w3.org/2000/svg" xmlns:xlink="http://www.w3.org/1999/xlink" width="1920" height="1080" viewBox="0 0 1920 1080">
  <defs>
    <clipPath id="clip-path">
      <path id="Caminho_489" data-name="Caminho 489" d="M1920,1080H11.542L0,0H1920Z" fill="none"/>
    </clipPath>
    <linearGradient id="linear-gradient" y1="0.5" x2="1" y2="0.5" gradientUnits="objectBoundingBox">
      <stop offset="0" stop-color="#8c2be2"/>
      <stop offset="1" stop-color="#4d02e0"/>
    </linearGradient>
  </defs>
  <g id="Grupo_695" data-name="Grupo 695" clip-path="url(#clip-path)">
    <g id="Grupo_694" data-name="Grupo 694" opacity="0.05">
      <path id="Caminho_484" data-name="Caminho 484" d="M358.05,1256.613,862.133,973.835,1161.3,305.822,767.874,908.263Z" fill="url(#linear-gradient)"/>
      <g id="Grupo_692" data-name="Grupo 692">
        <path id="Caminho_485" data-name="Caminho 485" d="M1386.707,1412.347c-315.564,368.841-803.255,463.1-1077.837,229.5-24.589-20.491-49.178-45.081-69.67-73.768,282.779,155.733,700.8,36.884,987.676-295.073,282.779-331.958,336.056-766.371,139.34-1020.462a585.678,585.678,0,0,1,81.965,57.375c274.582,233.6,254.091,733.585-57.375,1102.427Z" fill="url(#linear-gradient)"/>
        <path id="Caminho_486" data-name="Caminho 486" d="M1550.637,801.709c-24.59,168.028-98.358,323.76-196.715,459-127.046,168.028-299.172,311.467-499.985,377.038s-459,61.474-618.834-69.67c282.778,155.733,700.8,36.884,987.675-295.073,282.779-331.958,336.056-766.371,139.341-1020.461,143.438,118.848,209.01,381.136,188.519,549.164Z" fill="url(#linear-gradient)"/>
      </g>
      <g id="Grupo_693" data-name="Grupo 693">
        <path id="Caminho_487" data-name="Caminho 487" d="M1648.994,510.734c-32.785-94.26-86.063-180.322-163.929-245.894-65.572-57.375-147.537-98.358-233.6-114.751-286.876-69.67-651.619,69.67-909.809,368.841C83.467,822.2,5.6,1199.238,116.253,1473.82c32.786,81.965,81.965,151.635,151.635,213.108q116.8,98.359,270.484,122.948c-159.831,0-307.368-45.081-422.119-147.537C-203.41,1387.757-182.918,797.61,181.825,371.393s934.4-528.672,1258.16-254.09C1554.735,215.66,1624.406,355,1649,510.734Z" fill="url(#linear-gradient)"/>
        <path id="Caminho_488" data-name="Caminho 488" d="M1648.994,510.734c-32.785-94.26-86.063-180.322-163.929-245.894-65.572-57.375-147.537-98.358-233.6-114.751-286.876-69.67-651.619,69.67-909.809,368.841C83.467,822.2,5.6,1199.238,116.253,1473.82c32.786,81.965,81.965,151.635,151.635,213.108q116.8,98.359,270.484,122.948C333.46,1797.581,136.744,1658.241,42.485,1473.82S-55.873,1064,9.7,867.281C71.172,670.565,198.218,494.341,345.754,350.9,464.6,236.151,599.845,141.892,755.578,84.517s323.761-69.67,483.593-24.59c155.732,45.081,299.17,159.831,360.644,307.368a1113.326,1113.326,0,0,1,45.081,139.34Z" fill="url(#linear-gradient)"/>
      </g>
    </g>
  </g>
</svg>
