<svg width="235" height="227" viewBox="0 0 235 227" fill="none" xmlns="http://www.w3.org/2000/svg">
<g clip-path="url(#clip0_255_7)">
<path d="M171.354 227C136.261 227 107.708 199.42 107.708 165.521C107.708 131.622 136.261 104.042 171.354 104.042C206.448 104.042 235 131.622 235 165.521C235 199.42 206.448 227 171.354 227ZM171.354 118.229C144.359 118.229 122.396 139.444 122.396 165.521C122.396 191.597 144.359 212.813 171.354 212.813C198.35 212.813 220.313 191.597 220.313 165.521C220.313 139.444 198.35 118.229 171.354 118.229Z" fill="white"/>
<path d="M194.815 195.277C193.199 195.277 191.584 194.766 190.232 193.716L166.771 175.584C165.029 174.241 164.02 172.208 164.02 170.051V138.328C164.02 134.412 167.31 131.234 171.364 131.234C175.418 131.234 178.708 134.412 178.708 138.328V166.646L199.417 182.65C202.58 185.1 203.089 189.554 200.563 192.619C199.094 194.369 196.969 195.277 194.815 195.277Z" fill="white"/>
<path d="M96.5457 132.417H56.7915C52.7378 132.417 49.4478 129.239 49.4478 125.323C49.4478 121.407 52.7378 118.229 56.7915 118.229H96.5457C100.599 118.229 103.889 121.407 103.889 125.323C103.889 129.239 100.599 132.417 96.5457 132.417Z" fill="white"/>
<path d="M140.119 94.5833H56.7915C52.7378 94.5833 49.4478 91.4053 49.4478 87.4896C49.4478 83.5738 52.7378 80.3958 56.7915 80.3958H140.119C144.172 80.3958 147.462 83.5738 147.462 87.4896C147.462 91.4053 144.172 94.5833 140.119 94.5833Z" fill="white"/>
<path d="M149.323 56.75H56.8208C52.7671 56.75 49.4771 53.572 49.4771 49.6562C49.4771 45.7405 52.7671 42.5625 56.8208 42.5625H149.323C153.376 42.5625 156.666 45.7405 156.666 49.6562C156.666 53.572 153.376 56.75 149.323 56.75Z" fill="white"/>
<path d="M26.9272 180.106C22.8735 180.106 19.5835 176.928 19.5835 173.012V35.4688C19.5835 15.9089 36.0531 0 56.3022 0H203.177C207.231 0 210.521 3.178 210.521 7.09375C210.521 11.0095 207.231 14.1875 203.177 14.1875H56.3022C44.1508 14.1875 34.271 23.731 34.271 35.4688V173.012C34.271 176.928 30.981 180.106 26.9272 180.106Z" fill="white"/>
<path d="M227.656 52.0208H178.698C174.644 52.0208 171.354 48.8428 171.354 44.9271V30.7396C171.354 13.7903 185.63 0 203.177 0C220.724 0 235 13.7903 235 30.7396V44.9271C235 48.8428 231.71 52.0208 227.656 52.0208ZM186.042 37.8333H220.312V30.7396C220.312 21.6123 212.626 14.1875 203.177 14.1875C193.728 14.1875 186.042 21.6123 186.042 30.7396V37.8333Z" fill="white"/>
<path d="M106.925 227H26.9271C12.0731 227 0 215.338 0 200.99V172.993C0 169.077 3.29 165.899 7.34375 165.899H86.0688C90.1225 165.899 93.4125 169.077 93.4125 172.993C93.4125 176.909 90.1225 180.087 86.0688 180.087H14.6875V200.99C14.6875 207.506 20.1806 212.812 26.9271 212.812H106.925C110.979 212.812 114.269 215.99 114.269 219.906C114.269 223.822 110.979 227 106.925 227Z" fill="white"/>
<path d="M178.698 90.2325C174.644 90.2325 171.354 87.0545 171.354 83.1387V44.9271C171.354 41.0113 174.644 37.8333 178.698 37.8333C182.752 37.8333 186.042 41.0113 186.042 44.9271V83.1387C186.042 87.0545 182.752 90.2325 178.698 90.2325Z" fill="white"/>
</g>
<defs>
<clipPath id="clip0_255_7">
<rect width="235" height="227" fill="white"/>
</clipPath>
</defs>
</svg>
