<svg id="Layer_1" enable-background="new 0 0 180 180" height="300" viewBox="0 0 180 180" width="300" xmlns="http://www.w3.org/2000/svg" version="1.1" xmlns:xlink="http://www.w3.org/1999/xlink" xmlns:svgjs="http://svgjs.dev/svgjs"><g width="100%" height="100%" transform="matrix(1,0,0,1,0,0)"><path d="m155.013 1.003h-129.996c-13.241 0-24.014 10.772-24.014 24.014v129.996c0 13.225 10.772 23.984 24.014 23.984h129.996c13.225 0 23.984-10.76 23.984-23.984v-129.996c0-13.242-10.76-24.014-23.984-24.014z" fill="#2196f3" fill-opacity="0" data-original-color="#2196f3ff" stroke="none" stroke-opacity="1"/><path d="m136.271 87.682c-10.376-15.459-27.667-24.686-46.274-24.686-6.309 0-12.458 1.084-18.247 3.089l-12.486-12.491c-1.562-1.562-4.095-1.562-5.657-.001-1.563 1.562-1.563 4.095-.001 5.657l10.248 10.252c-7.978 4.24-14.924 10.424-20.129 18.179-.139.197-.259.406-.359.623-.25.537-.37 1.109-.37 1.678-.001.569.12 1.144.37 1.683.1.216.219.424.357.62 10.368 15.479 27.659 24.718 46.275 24.718 6.31 0 12.459-1.085 18.247-3.091l12.486 12.491c.781.781 1.805 1.172 2.829 1.172 1.023 0 2.047-.391 2.828-1.171 1.563-1.562 1.563-4.095.001-5.657l-10.25-10.254c7.982-4.246 14.931-10.439 20.134-18.208.138-.195.256-.402.355-.616.251-.54.373-1.115.372-1.686 0-.57-.122-1.146-.373-1.685-.1-.214-.219-.421-.356-.616zm-46.274 21.32c-15.058 0-29.104-7.059-38.099-19.016 4.762-6.316 10.944-11.246 17.931-14.506l7.335 7.338c-1.194 2.122-1.882 4.564-1.882 7.166 0 8.114 6.601 14.715 14.715 14.715 2.602 0 5.043-.685 7.166-1.874l4.671 4.674c-3.822.978-7.791 1.503-11.837 1.503zm6.633-18.026-7.599-7.602c.316-.046.636-.077.965-.077 3.703 0 6.715 3 6.715 6.688.001.337-.032.666-.081.991zm-5.668 5.646c-.316.046-.637.077-.965.077-3.703 0-6.715-3.013-6.715-6.715 0-.329.032-.65.079-.967zm19.202 7.894-7.34-7.344c1.197-2.128 1.888-4.577 1.888-7.188 0-8.099-6.601-14.688-14.715-14.688-2.602 0-5.044.685-7.167 1.872l-4.668-4.671c3.822-.977 7.79-1.502 11.836-1.502 15.051 0 29.098 7.051 38.099 18.99-4.761 6.328-10.943 11.266-17.933 14.531z" fill="#525252" fill-opacity="1" data-original-color="#ffffffff" stroke="none" stroke-opacity="1"/></g></svg>