<svg id="Layer_1" enable-background="new 0 0 180 180" height="300" viewBox="0 0 180 180" width="300" xmlns="http://www.w3.org/2000/svg" version="1.1" xmlns:xlink="http://www.w3.org/1999/xlink" xmlns:svgjs="http://svgjs.dev/svgjs"><g width="100%" height="100%" transform="matrix(1,0,0,1,0,0)"><path d="m155.013 1.003h-129.996c-13.241 0-24.014 10.772-24.014 24.014v129.996c0 13.225 10.772 23.984 24.014 23.984h129.996c13.225 0 23.984-10.76 23.984-23.984v-129.996c0-13.242-10.76-24.014-23.984-24.014z" fill="#2196f3" fill-opacity="0" data-original-color="#2196f3ff" stroke="none" stroke-opacity="1"/><path d="m136.614 88.322c-.1-.216-.22-.425-.358-.623-10.368-15.479-27.659-24.716-46.276-24.716s-35.907 9.238-46.273 24.717c-.139.198-.259.406-.358.622-.249.537-.369 1.109-.368 1.676-.001.572.12 1.149.373 1.689.099.214.218.42.355.615 10.374 15.459 27.664 24.686 46.271 24.686 18.606 0 35.897-9.226 46.273-24.685.139-.197.259-.406.358-.623.25-.538.371-1.111.37-1.68.002-.567-.118-1.14-.367-1.678zm-46.634 20.667c-15.052 0-29.098-7.051-38.098-18.991 8.993-11.956 23.039-19.015 38.098-19.015 15.057 0 29.104 7.06 38.099 19.015-9.001 11.94-23.048 18.991-38.099 18.991zm0-33.704c-8.098 0-14.686 6.601-14.686 14.715 0 8.098 6.588 14.687 14.686 14.687 8.114 0 14.715-6.588 14.715-14.687 0-8.114-6.6-14.715-14.715-14.715zm0 21.402c-3.687 0-6.686-3-6.686-6.687 0-3.703 2.999-6.715 6.686-6.715 3.702 0 6.715 3.012 6.715 6.715 0 3.687-3.012 6.687-6.715 6.687z" fill="#5246fe" fill-opacity="1" data-original-color="#ffffffff" stroke="none" stroke-opacity="1"/></g></svg>