<svg id="Layer_1" enable-background="new 0 0 66 66" height="300" viewBox="0 0 66 66" width="300" xmlns="http://www.w3.org/2000/svg" version="1.1" xmlns:xlink="http://www.w3.org/1999/xlink" xmlns:svgjs="http://svgjs.dev/svgjs"><g width="100%" height="100%" transform="matrix(1,0,0,1,0,0)"><g style="fill:none;stroke:#000;stroke-width:2;stroke-linecap:round;stroke-linejoin:round;stroke-miterlimit:10"><g><g><path d="m47.9 57.5v2.5c0 2.2-1.8 4-4 4h-37.1c-2.2 0-4-1.8-4-4v-54c0-2.2 1.8-4 4-4h29.6" fill="none" fill-opacity="1" stroke="#706f6f" stroke-opacity="1" data-original-stroke-color="#000000ff" stroke-width="2" data-original-stroke-width="2"/><path d="m47.9 13.3v14.5" fill="none" fill-opacity="1" stroke="#706f6f" stroke-opacity="1" data-original-stroke-color="#000000ff" stroke-width="2" data-original-stroke-width="2"/><path d="m36.6 2 11.3 11.3h-7.7c-2 0-3.7-1.6-3.7-3.7v-7.6z" fill="none" fill-opacity="1" stroke="#706f6f" stroke-opacity="1" data-original-stroke-color="#000000ff" stroke-width="2" data-original-stroke-width="2"/></g><g><path d="m55.5 48.5 2.2-1.2" fill="none" fill-opacity="1" stroke="#706f6f" stroke-opacity="1" data-original-stroke-color="#000000ff" stroke-width="2" data-original-stroke-width="2"/><path d="m44.1 51c-.5-.3-.9-.6-1.3-.9-2.8-2.4-6.8-6.5-10-8.4l-6-3.6c.3-.7.8-1.3 1.4-1.6.9-.5 2-.6 3.1-.2l4.1 2.3-5.7-9.8c-.6-1.1-.3-2.4.8-3.1 1.1-.6 2.4-.3 3.1.8l5.6 9.6" fill="none" fill-opacity="1" stroke="#706f6f" stroke-opacity="1" data-original-stroke-color="#000000ff" stroke-width="2" data-original-stroke-width="2"/><path d="m40.1 37.8-2.4-4.2c-.6-1.1-.3-2.4.8-3.1 1.1-.6 2.4-.3 3.1.8l1.4 2.4" fill="none" fill-opacity="1" stroke="#706f6f" stroke-opacity="1" data-original-stroke-color="#000000ff" stroke-width="2" data-original-stroke-width="2"/><path d="m44 35.5-2-3.4c-.6-1.1-.3-2.4.8-3.1 1.1-.6 2.4-.3 3.1.8l1 1.6" fill="none" fill-opacity="1" stroke="#706f6f" stroke-opacity="1" data-original-stroke-color="#000000ff" stroke-width="2" data-original-stroke-width="2"/><path d="m47.9 33.3-1-1.8c-.6-1.1-.3-2.4.8-3.1 1.1-.6 2.4-.3 3.1.8l4.3 7.3c.9 1.5 2.4 5.1 2.4 6.8" fill="none" fill-opacity="1" stroke="#706f6f" stroke-opacity="1" data-original-stroke-color="#000000ff" stroke-width="2" data-original-stroke-width="2"/><path d="m42.1 46.9h20.8v6.8h-20.8z" transform="matrix(.866 -.5 .5 .866 -18.117 32.997)" fill="none" fill-opacity="1" stroke="#706f6f" stroke-opacity="1" data-original-stroke-color="#000000ff" stroke-width="2" data-original-stroke-width="2"/></g><g><g><path d="m7.5 11.3h2.2v7.4" fill="none" fill-opacity="1" stroke="#706f6f" stroke-opacity="1" data-original-stroke-color="#000000ff" stroke-width="2" data-original-stroke-width="2"/><path d="m9.7 7.3v.5" fill="none" fill-opacity="1" stroke="#706f6f" stroke-opacity="1" data-original-stroke-color="#000000ff" stroke-width="2" data-original-stroke-width="2"/></g><g><path d="m14.5 9.3h17.2" fill="none" fill-opacity="1" stroke="#706f6f" stroke-opacity="1" data-original-stroke-color="#000000ff" stroke-width="2" data-original-stroke-width="2"/><path d="m14.5 13.8h18.5" fill="none" fill-opacity="1" stroke="#706f6f" stroke-opacity="1" data-original-stroke-color="#000000ff" stroke-width="2" data-original-stroke-width="2"/><path d="m14.5 18.3h28.6" fill="none" fill-opacity="1" stroke="#706f6f" stroke-opacity="1" data-original-stroke-color="#000000ff" stroke-width="2" data-original-stroke-width="2"/><path d="m14.6 22.8h12.4" fill="none" fill-opacity="1" stroke="#706f6f" stroke-opacity="1" data-original-stroke-color="#000000ff" stroke-width="2" data-original-stroke-width="2"/><path d="m8.5 22.8h2.1" fill="none" fill-opacity="1" stroke="#706f6f" stroke-opacity="1" data-original-stroke-color="#000000ff" stroke-width="2" data-original-stroke-width="2"/><path d="m14.6 27.4h9.6" fill="none" fill-opacity="1" stroke="#706f6f" stroke-opacity="1" data-original-stroke-color="#000000ff" stroke-width="2" data-original-stroke-width="2"/><path d="m8.5 27.4h2.1" fill="none" fill-opacity="1" stroke="#706f6f" stroke-opacity="1" data-original-stroke-color="#000000ff" stroke-width="2" data-original-stroke-width="2"/><path d="m14.6 31.9h12" fill="none" fill-opacity="1" stroke="#706f6f" stroke-opacity="1" data-original-stroke-color="#000000ff" stroke-width="2" data-original-stroke-width="2"/><path d="m8.5 31.9h2.1" fill="none" fill-opacity="1" stroke="#706f6f" stroke-opacity="1" data-original-stroke-color="#000000ff" stroke-width="2" data-original-stroke-width="2"/><path d="m14.6 36.4h8.2" fill="none" fill-opacity="1" stroke="#706f6f" stroke-opacity="1" data-original-stroke-color="#000000ff" stroke-width="2" data-original-stroke-width="2"/><path d="m8.5 36.4h2.1" fill="none" fill-opacity="1" stroke="#706f6f" stroke-opacity="1" data-original-stroke-color="#000000ff" stroke-width="2" data-original-stroke-width="2"/><path d="m14.6 40.9h8.2" fill="none" fill-opacity="1" stroke="#706f6f" stroke-opacity="1" data-original-stroke-color="#000000ff" stroke-width="2" data-original-stroke-width="2"/><path d="m8.5 40.9h2.1" fill="none" fill-opacity="1" stroke="#706f6f" stroke-opacity="1" data-original-stroke-color="#000000ff" stroke-width="2" data-original-stroke-width="2"/><path d="m14.6 45.4h15.1" fill="none" fill-opacity="1" stroke="#706f6f" stroke-opacity="1" data-original-stroke-color="#000000ff" stroke-width="2" data-original-stroke-width="2"/><path d="m8.5 45.4h2.1" fill="none" fill-opacity="1" stroke="#706f6f" stroke-opacity="1" data-original-stroke-color="#000000ff" stroke-width="2" data-original-stroke-width="2"/><path d="m8.5 49.4h28.2v9.3h-28.2z" fill="none" fill-opacity="1" stroke="#706f6f" stroke-opacity="1" data-original-stroke-color="#000000ff" stroke-width="2" data-original-stroke-width="2"/></g></g></g><g><g><path d="m47.9 57.5v2.5c0 2.2-1.8 4-4 4h-37.1c-2.2 0-4-1.8-4-4v-54c0-2.2 1.8-4 4-4h29.6" fill="none" fill-opacity="1" stroke="#706f6f" stroke-opacity="1" data-original-stroke-color="#000000ff" stroke-width="2" data-original-stroke-width="2"/><path d="m47.9 13.3v14.5" fill="none" fill-opacity="1" stroke="#706f6f" stroke-opacity="1" data-original-stroke-color="#000000ff" stroke-width="2" data-original-stroke-width="2"/><path d="m36.6 2 11.3 11.3h-7.7c-2 0-3.7-1.6-3.7-3.7v-7.6z" fill="none" fill-opacity="1" stroke="#706f6f" stroke-opacity="1" data-original-stroke-color="#000000ff" stroke-width="2" data-original-stroke-width="2"/></g><g><path d="m55.5 48.5 2.2-1.2" fill="none" fill-opacity="1" stroke="#706f6f" stroke-opacity="1" data-original-stroke-color="#000000ff" stroke-width="2" data-original-stroke-width="2"/><path d="m44.1 51c-.5-.3-.9-.6-1.3-.9-2.8-2.4-6.8-6.5-10-8.4l-6-3.6c.3-.7.8-1.3 1.4-1.6.9-.5 2-.6 3.1-.2l4.1 2.3-5.7-9.8c-.6-1.1-.3-2.4.8-3.1 1.1-.6 2.4-.3 3.1.8l5.6 9.6" fill="none" fill-opacity="1" stroke="#706f6f" stroke-opacity="1" data-original-stroke-color="#000000ff" stroke-width="2" data-original-stroke-width="2"/><path d="m40.1 37.8-2.4-4.2c-.6-1.1-.3-2.4.8-3.1 1.1-.6 2.4-.3 3.1.8l1.4 2.4" fill="none" fill-opacity="1" stroke="#706f6f" stroke-opacity="1" data-original-stroke-color="#000000ff" stroke-width="2" data-original-stroke-width="2"/><path d="m44 35.5-2-3.4c-.6-1.1-.3-2.4.8-3.1 1.1-.6 2.4-.3 3.1.8l1 1.6" fill="none" fill-opacity="1" stroke="#706f6f" stroke-opacity="1" data-original-stroke-color="#000000ff" stroke-width="2" data-original-stroke-width="2"/><path d="m47.9 33.3-1-1.8c-.6-1.1-.3-2.4.8-3.1 1.1-.6 2.4-.3 3.1.8l4.3 7.3c.9 1.5 2.4 5.1 2.4 6.8" fill="none" fill-opacity="1" stroke="#706f6f" stroke-opacity="1" data-original-stroke-color="#000000ff" stroke-width="2" data-original-stroke-width="2"/><path d="m42.1 46.9h20.8v6.8h-20.8z" transform="matrix(.866 -.5 .5 .866 -18.117 32.997)" fill="none" fill-opacity="1" stroke="#706f6f" stroke-opacity="1" data-original-stroke-color="#000000ff" stroke-width="2" data-original-stroke-width="2"/></g><g><g><path d="m7.5 11.3h2.2v7.4" fill="none" fill-opacity="1" stroke="#706f6f" stroke-opacity="1" data-original-stroke-color="#000000ff" stroke-width="2" data-original-stroke-width="2"/><path d="m9.7 7.3v.5" fill="none" fill-opacity="1" stroke="#706f6f" stroke-opacity="1" data-original-stroke-color="#000000ff" stroke-width="2" data-original-stroke-width="2"/></g><g><path d="m14.5 9.3h17.2" fill="none" fill-opacity="1" stroke="#706f6f" stroke-opacity="1" data-original-stroke-color="#000000ff" stroke-width="2" data-original-stroke-width="2"/><path d="m14.5 13.8h18.5" fill="none" fill-opacity="1" stroke="#706f6f" stroke-opacity="1" data-original-stroke-color="#000000ff" stroke-width="2" data-original-stroke-width="2"/><path d="m14.5 18.3h28.6" fill="none" fill-opacity="1" stroke="#706f6f" stroke-opacity="1" data-original-stroke-color="#000000ff" stroke-width="2" data-original-stroke-width="2"/><path d="m14.6 22.8h12.4" fill="none" fill-opacity="1" stroke="#706f6f" stroke-opacity="1" data-original-stroke-color="#000000ff" stroke-width="2" data-original-stroke-width="2"/><path d="m8.5 22.8h2.1" fill="none" fill-opacity="1" stroke="#706f6f" stroke-opacity="1" data-original-stroke-color="#000000ff" stroke-width="2" data-original-stroke-width="2"/><path d="m14.6 27.4h9.6" fill="none" fill-opacity="1" stroke="#706f6f" stroke-opacity="1" data-original-stroke-color="#000000ff" stroke-width="2" data-original-stroke-width="2"/><path d="m8.5 27.4h2.1" fill="none" fill-opacity="1" stroke="#706f6f" stroke-opacity="1" data-original-stroke-color="#000000ff" stroke-width="2" data-original-stroke-width="2"/><path d="m14.6 31.9h12" fill="none" fill-opacity="1" stroke="#706f6f" stroke-opacity="1" data-original-stroke-color="#000000ff" stroke-width="2" data-original-stroke-width="2"/><path d="m8.5 31.9h2.1" fill="none" fill-opacity="1" stroke="#706f6f" stroke-opacity="1" data-original-stroke-color="#000000ff" stroke-width="2" data-original-stroke-width="2"/><path d="m14.6 36.4h8.2" fill="none" fill-opacity="1" stroke="#706f6f" stroke-opacity="1" data-original-stroke-color="#000000ff" stroke-width="2" data-original-stroke-width="2"/><path d="m8.5 36.4h2.1" fill="none" fill-opacity="1" stroke="#706f6f" stroke-opacity="1" data-original-stroke-color="#000000ff" stroke-width="2" data-original-stroke-width="2"/><path d="m14.6 40.9h8.2" fill="none" fill-opacity="1" stroke="#706f6f" stroke-opacity="1" data-original-stroke-color="#000000ff" stroke-width="2" data-original-stroke-width="2"/><path d="m8.5 40.9h2.1" fill="none" fill-opacity="1" stroke="#706f6f" stroke-opacity="1" data-original-stroke-color="#000000ff" stroke-width="2" data-original-stroke-width="2"/><path d="m14.6 45.4h15.1" fill="none" fill-opacity="1" stroke="#706f6f" stroke-opacity="1" data-original-stroke-color="#000000ff" stroke-width="2" data-original-stroke-width="2"/><path d="m8.5 45.4h2.1" fill="none" fill-opacity="1" stroke="#706f6f" stroke-opacity="1" data-original-stroke-color="#000000ff" stroke-width="2" data-original-stroke-width="2"/><path d="m8.5 49.4h28.2v9.3h-28.2z" fill="none" fill-opacity="1" stroke="#706f6f" stroke-opacity="1" data-original-stroke-color="#000000ff" stroke-width="2" data-original-stroke-width="2"/></g></g></g></g></g></svg>